<svg xmlns="http://www.w3.org/2000/svg" width="259" height="35" viewBox="0 0 259 35"><g transform="translate(-783 -84)"><text transform="translate(836 110)" font-size="25" font-family="Poppins-Black, Poppins" font-weight="800" letter-spacing="0.056em"><tspan x="0" y="0">MOVEYASTUFF</tspan></text><g transform="translate(783 83.382)"><g transform="translate(0 2.992)"><g transform="translate(0 0)"><path d="M20,8.572V8.564l5.988,2.682L32,8.992l-16-6-16,6,16,6,5.988-2.246L16,10.278v-.006Z" transform="translate(0 -2.992)"/></g></g><g transform="translate(0 10.992)"><path d="M0,130.992v18l15,5.626v-18Zm8,18.066-4-1.5v-2.134l4,1.5Z" transform="translate(0 -130.992)"/></g><g transform="translate(17 10.992)"><path d="M281,133.242v5.01l-4,1.5v-5.01l-5,1.876v18l15-5.626v-18Z" transform="translate(-272 -130.992)"/></g></g></g></svg>