<svg xmlns="http://www.w3.org/2000/svg" width="83.5" height="83.533" viewBox="0 0 83.5 83.533"><g transform="translate(0.25 0.283)"><g transform="translate(51.875 35.016)"><path d="M321.3,216a1.3,1.3,0,0,0-1.3,1.3v22.047a1.3,1.3,0,0,0,2.594,0V217.3A1.3,1.3,0,0,0,321.3,216Z" transform="translate(-320 -216)" stroke="#000" stroke-width="0.5"/></g><g transform="translate(76.543 67.438)"><path d="M477.328,416h-3.863a1.3,1.3,0,0,0,0,2.594h3.863a1.3,1.3,0,0,0,0-2.594Z" transform="translate(-472.168 -416)" stroke="#000" stroke-width="0.5"/></g><g transform="translate(80.406 67.438)"><path d="M497.3,416a1.3,1.3,0,0,0-1.3,1.3v5.188a1.3,1.3,0,0,0,2.594,0V417.3A1.3,1.3,0,0,0,497.3,416Z" transform="translate(-496 -416)" stroke="#000" stroke-width="0.5"/></g><g transform="translate(2.594 72.625)"><path d="M26.375,448h0l-9.078.027a1.3,1.3,0,0,0,0,2.594h0l9.078-.027a1.3,1.3,0,0,0,0-2.594Z" transform="translate(-16 -448)" stroke="#000" stroke-width="0.5"/></g><g transform="translate(77.813 60.953)"><path d="M482.594,376h-1.3a1.3,1.3,0,0,0,0,2.594h1.3a1.3,1.3,0,0,0,0-2.594Z" transform="translate(-480 -376)" stroke="#000" stroke-width="0.5"/></g><g transform="translate(79.109 51.875)"><path d="M489.3,320a1.3,1.3,0,0,0-1.3,1.3v15.563a1.3,1.3,0,0,0,2.594,0V321.3A1.3,1.3,0,0,0,489.3,320Z" transform="translate(-488 -320)" stroke="#000" stroke-width="0.5"/></g><g transform="translate(51.875 35.016)"><path d="M340.75,216H321.3a1.3,1.3,0,0,0,0,2.594H340.75a1.3,1.3,0,0,0,0-2.594Z" transform="translate(-320 -216)" stroke="#000" stroke-width="0.5"/></g><g transform="translate(71.328 35.015)"><path d="M450.255,233.612l-7.781-16.859a1.3,1.3,0,1,0-2.355,1.087L447.9,234.7a1.3,1.3,0,0,0,1.179.753,1.3,1.3,0,0,0,1.176-1.84Z" transform="translate(-439.999 -215.999)" stroke="#000" stroke-width="0.5"/></g><g transform="translate(2.594 67.438)"><path d="M17.3,416a1.3,1.3,0,0,0-1.3,1.3v5.269a1.3,1.3,0,0,0,2.594,0V417.3A1.3,1.3,0,0,0,17.3,416Z" transform="translate(-16 -416)" stroke="#000" stroke-width="0.5"/></g><g transform="translate(0 50.578)"><path d="M1.3,312A1.3,1.3,0,0,0,0,313.3v16.859a1.3,1.3,0,0,0,2.594,0V313.3A1.3,1.3,0,0,0,1.3,312Z" transform="translate(0 -312)" stroke="#000" stroke-width="0.5"/></g><g transform="translate(0 50.578)"><path d="M53.172,312H1.3a1.3,1.3,0,0,0,0,2.594H53.172a1.3,1.3,0,0,0,0-2.594Z" transform="translate(0 -312)" stroke="#000" stroke-width="0.5"/></g><g transform="translate(0 67.438)"><path d="M7.781,416H1.3a1.3,1.3,0,0,0,0,2.594H7.781a1.3,1.3,0,0,0,0-2.594Z" transform="translate(0 -416)" stroke="#000" stroke-width="0.5"/></g><g transform="translate(11.672 64.844)"><path d="M81.078,400a9.078,9.078,0,1,0,9.078,9.078A9.09,9.09,0,0,0,81.078,400Zm0,15.563a6.484,6.484,0,1,1,6.484-6.484A6.492,6.492,0,0,1,81.078,415.563Z" transform="translate(-72 -400)" stroke="#000" stroke-width="0.5"/></g><g transform="translate(16.859 70.031)"><path d="M107.891,432a3.891,3.891,0,1,0,3.891,3.891A3.9,3.9,0,0,0,107.891,432Zm0,5.188a1.3,1.3,0,1,1,1.3-1.3A1.3,1.3,0,0,1,107.891,437.188Z" transform="translate(-104 -432)" stroke="#000" stroke-width="0.5"/></g><g transform="translate(59.656 70.031)"><path d="M371.891,432a3.891,3.891,0,1,0,3.891,3.891A3.9,3.9,0,0,0,371.891,432Zm0,5.188a1.3,1.3,0,1,1,1.3-1.3A1.3,1.3,0,0,1,371.891,437.188Z" transform="translate(-368 -432)" stroke="#000" stroke-width="0.5"/></g><g transform="translate(54.469 64.844)"><path d="M345.078,400a9.078,9.078,0,1,0,9.078,9.078A9.09,9.09,0,0,0,345.078,400Zm0,15.563a6.484,6.484,0,1,1,6.484-6.484A6.492,6.492,0,0,1,345.078,415.563Z" transform="translate(-336 -400)" stroke="#000" stroke-width="0.5"/></g><g transform="translate(27.234 72.625)"><path d="M196.564,448H169.3a1.3,1.3,0,0,0,0,2.594h27.267a1.3,1.3,0,0,0,0-2.594Z" transform="translate(-168 -448)" stroke="#000" stroke-width="0.5"/></g><g transform="translate(70.031 72.625)"><path d="M443.672,448H433.3a1.3,1.3,0,0,0,0,2.594h10.375a1.3,1.3,0,0,0,0-2.594Z" transform="translate(-432 -448)" stroke="#000" stroke-width="0.5"/></g><g transform="translate(63.547 51.875)"><path d="M408.859,320H393.3a1.3,1.3,0,0,0,0,2.594h15.563a1.3,1.3,0,0,0,0-2.594Z" transform="translate(-392 -320)" stroke="#000" stroke-width="0.5"/></g><g transform="translate(58.359 46.688)"><path d="M366.484,293.188a3.9,3.9,0,0,1-3.891-3.891,1.3,1.3,0,0,0-2.594,0,6.492,6.492,0,0,0,6.484,6.484,1.3,1.3,0,0,0,0-2.594Z" transform="translate(-360 -288)" stroke="#000" stroke-width="0.5"/></g><g transform="translate(58.359 35.016)"><path d="M361.3,216a1.3,1.3,0,0,0-1.3,1.3v11.672a1.3,1.3,0,0,0,2.594,0V217.3A1.3,1.3,0,0,0,361.3,216Z" transform="translate(-360 -216)" stroke="#000" stroke-width="0.5"/></g><g transform="translate(55.766 19.453)"><path d="M345.3,120a1.3,1.3,0,0,0-1.3,1.3v5.188a1.3,1.3,0,0,0,2.594,0V121.3A1.3,1.3,0,0,0,345.3,120Z" transform="translate(-344 -120)" stroke="#000" stroke-width="0.5"/></g><g transform="translate(5.188 21.861)"><path d="M33.3,134.856a1.3,1.3,0,0,0-1.3,1.3V164.87a1.3,1.3,0,0,0,2.594,0V136.153A1.3,1.3,0,0,0,33.3,134.856Z" transform="translate(-32 -134.856)" stroke="#000" stroke-width="0.5"/></g><g transform="translate(51.875 21.861)"><path d="M321.3,134.856a1.3,1.3,0,0,0-1.3,1.3V164.87a1.3,1.3,0,0,0,2.594,0V136.153A1.3,1.3,0,0,0,321.3,134.856Z" transform="translate(-320 -134.856)" stroke="#000" stroke-width="0.5"/></g><g transform="translate(1.296 0)"><path d="M64.512,19.694,37.278.241a1.3,1.3,0,0,0-1.507,0L8.537,19.694a1.3,1.3,0,0,0,1.508,2.11L36.526,2.891,63.007,21.8a1.3,1.3,0,0,0,1.506-2.11Z" transform="translate(-7.993 0)" stroke="#000" stroke-width="0.5"/></g><g transform="translate(1.296 5.188)"><path d="M64.512,51.694,37.278,32.241a1.3,1.3,0,0,0-1.507,0L8.537,51.694a1.3,1.3,0,1,0,1.508,2.11L36.526,34.891,63.007,53.8a1.3,1.3,0,0,0,1.506-2.11Z" transform="translate(-7.993 -32)" stroke="#000" stroke-width="0.5"/></g><g transform="translate(1.297 19.453)"><path d="M9.3,120A1.3,1.3,0,0,0,8,121.3v5.188a1.3,1.3,0,0,0,2.594,0V121.3A1.3,1.3,0,0,0,9.3,120Z" transform="translate(-8 -120)" stroke="#000" stroke-width="0.5"/></g><g transform="translate(32.422 35.016)"><path d="M201.3,216a1.3,1.3,0,0,0-1.3,1.3v15.563a1.3,1.3,0,0,0,2.594,0V217.3A1.3,1.3,0,0,0,201.3,216Z" transform="translate(-200 -216)" stroke="#000" stroke-width="0.5"/></g><g transform="translate(24.641 35.016)"><path d="M161.078,216H153.3a1.3,1.3,0,0,0,0,2.594h7.781a1.3,1.3,0,0,0,0-2.594Z" transform="translate(-152 -216)" stroke="#000" stroke-width="0.5"/></g><g transform="translate(24.641 35.016)"><path d="M153.3,216a1.3,1.3,0,0,0-1.3,1.3v15.563a1.3,1.3,0,0,0,2.594,0V217.3A1.3,1.3,0,0,0,153.3,216Z" transform="translate(-152 -216)" stroke="#000" stroke-width="0.5"/></g><g transform="translate(10.375 28.531)"><path d="M74.375,176H65.3a1.3,1.3,0,0,0-1.3,1.3v9.078a1.3,1.3,0,0,0,1.3,1.3h9.078a1.3,1.3,0,0,0,1.3-1.3V177.3A1.3,1.3,0,0,0,74.375,176Zm-1.3,9.078H66.594v-6.484h6.484Z" transform="translate(-64 -176)" stroke="#000" stroke-width="0.5"/></g><g transform="translate(37.609 28.531)"><path d="M242.375,176H233.3a1.3,1.3,0,0,0-1.3,1.3v9.078a1.3,1.3,0,0,0,1.3,1.3h9.078a1.3,1.3,0,0,0,1.3-1.3V177.3A1.3,1.3,0,0,0,242.375,176Zm-1.3,9.078h-6.484v-6.484h6.484Z" transform="translate(-232 -176)" stroke="#000" stroke-width="0.5"/></g><g transform="translate(24.641 16.859)"><path d="M157.188,104a5.188,5.188,0,1,0,5.188,5.188A5.193,5.193,0,0,0,157.188,104Zm0,7.781a2.594,2.594,0,1,1,2.594-2.594A2.6,2.6,0,0,1,157.188,111.781Z" transform="translate(-152 -104)" stroke="#000" stroke-width="0.5"/></g></g></svg>